<?xml version="1.0" encoding="UTF-8" standalone="no"?>
<!-- Created with Inkscape (http://www.inkscape.org/) -->

<svg
   xmlns:dc="http://purl.org/dc/elements/1.1/"
   xmlns:cc="http://creativecommons.org/ns#"
   xmlns:rdf="http://www.w3.org/1999/02/22-rdf-syntax-ns#"
   xmlns:svg="http://www.w3.org/2000/svg"
   xmlns="http://www.w3.org/2000/svg"
   xmlns:sodipodi="http://sodipodi.sourceforge.net/DTD/sodipodi-0.dtd"
   xmlns:inkscape="http://www.inkscape.org/namespaces/inkscape"
   width="64"
   height="64.000008"
   id="svg2"
   version="1.1"
   inkscape:version="0.48.3.1 r9886"
   inkscape:export-filename="/home/daniel/Projects/test1/data/media/logo.png"
   inkscape:export-xdpi="90"
   inkscape:export-ydpi="90"
   sodipodi:docname="collage.svg">
  <defs
     id="defs4" />
  <sodipodi:namedview
     id="base"
     pagecolor="#ffffff"
     bordercolor="#666666"
     borderopacity="1.0"
     inkscape:pageopacity="0.0"
     inkscape:pageshadow="2"
     inkscape:zoom="1.4142136"
     inkscape:cx="-149.22083"
     inkscape:cy="62.220674"
     inkscape:document-units="px"
     inkscape:current-layer="layer1"
     showgrid="false"
     fit-margin-top="0"
     fit-margin-left="0"
     fit-margin-right="0"
     fit-margin-bottom="0"
     showborder="false"
     inkscape:window-width="1855"
     inkscape:window-height="1056"
     inkscape:window-x="65"
     inkscape:window-y="24"
     inkscape:window-maximized="1" />
  <metadata
     id="metadata7">
    <rdf:RDF>
      <cc:Work
         rdf:about="">
        <dc:format>image/svg+xml</dc:format>
        <dc:type
           rdf:resource="http://purl.org/dc/dcmitype/StillImage" />
        <dc:title />
      </cc:Work>
    </rdf:RDF>
  </metadata>
  <g
     inkscape:label="Layer 1"
     inkscape:groupmode="layer"
     id="layer1"
     transform="translate(-355.97817,-385.42867)">
    <path
       style="fill:#ffffff"
       d="m 398.73202,394.34273 c -1.08285,0.0211 -2.15589,0.48165 -2.98979,1.42969 -1.18348,1.34547 -1.40418,2.71621 -0.71223,4.38281 1.03576,2.49465 3.94418,3.42259 6.13611,1.96094 1.67694,-1.11824 2.46376,-3.57017 1.65143,-5.14844 -0.89738,-1.74353 -2.5029,-2.65576 -4.08552,-2.625 z m -10.89472,4.5625 c -2.42555,0.0486 -5.06336,0.54882 -7.13793,1.41406 l -0.98616,0.41407 1.4401,2.58593 c 0.7934,1.42317 1.57848,2.58594 1.73753,2.58594 0.15904,0 1.00483,-0.20744 1.8784,-0.46094 1.11892,-0.32468 2.32043,-0.42761 4.07769,-0.34375 2.11554,0.10097 2.79469,0.26709 4.4612,1.08594 3.49728,1.7184 6.43694,5.49864 6.88747,8.85156 l 0.15654,1.14063 3.12284,0 3.12285,0 -0.18785,-1.35156 c -0.4425,-3.10716 -2.22228,-7.05351 -4.21857,-9.35157 -0.98973,-1.13933 -0.99683,-1.14194 -2.84891,-1.04687 -1.42823,0.0733 -2.1054,-0.0309 -2.95848,-0.46875 -1.4763,-0.75774 -2.64614,-2.0279 -3.10719,-3.375 -0.36828,-1.07602 -0.42039,-1.11073 -2.33235,-1.46094 -0.94616,-0.1733 -2.00467,-0.24083 -3.10718,-0.21875 z m -10.40166,3.29688 c -0.21996,-0.004 -1.37809,0.98671 -2.57497,2.20312 -2.13408,2.16892 -3.79668,4.8071 -4.58642,7.27344 -0.30595,0.95543 -0.27996,1.1251 0.27392,1.71094 2.02961,2.14667 2.13473,5.62909 0.23481,7.78906 l -0.82964,0.95312 0.57918,1.64063 c 0.31829,0.90395 0.99768,2.35651 1.51055,3.22656 0.98269,1.66709 4.84642,5.73569 5.43954,5.72656 0.19139,-0.003 1.00069,-1.12768 1.7923,-2.5 l 1.44011,-2.49218 -1.46359,-1.42969 c -1.74469,-1.7009 -3.15687,-4.42419 -3.60027,-6.94531 -0.65587,-3.72915 0.73477,-7.91313 3.58462,-10.75782 l 1.4949,-1.48437 -1.44794,-2.45313 c -0.79721,-1.3482 -1.62713,-2.457 -1.8471,-2.46093 z m -11.48172,11.00781 c -0.9633,0.0352 -1.91614,0.41377 -2.69237,1.1875 -2.00987,2.00337 -1.64736,5.13021 0.77483,6.64844 1.21586,0.7621 3.46635,0.64626 4.72731,-0.25 0.50706,-0.3604 1.08552,-1.17918 1.36967,-1.92188 0.42186,-1.10264 0.44357,-1.46028 0.14089,-2.46875 -0.6246,-2.08092 -2.48131,-3.26251 -4.32033,-3.19531 z m 34.48431,5.39844 -0.21914,1.28125 c -0.3438,1.98869 -1.85107,4.75045 -3.48287,6.375 -3.52802,3.51233 -9.02028,4.5823 -13.61059,2.65625 -0.31683,-0.13294 -0.81591,0.51278 -1.90188,2.46093 l -1.47141,2.63282 1.08791,0.5 c 2.35906,1.08328 4.03098,1.35097 7.7171,1.25 1.9655,-0.0538 3.79469,-0.19399 4.06987,-0.3125 0.27517,-0.11852 0.50091,-0.41217 0.50091,-0.65625 0,-0.80589 1.40637,-2.86257 2.36365,-3.45313 1.32111,-0.81501 3.27853,-1.20069 4.58643,-0.90625 1.07501,0.24202 1.1022,0.22987 2.37147,-1.36719 0.70576,-0.88801 1.72249,-2.51849 2.25409,-3.61718 0.92244,-1.90647 2.06223,-6.31651 1.72186,-6.65625 -0.0888,-0.0886 -1.47469,-0.16332 -3.07588,-0.17188 l -2.91152,-0.0156 z m -1.72969,13.57031 c -0.6657,0.006 -1.3092,0.12563 -1.7923,0.375 -2.86148,1.47704 -2.99196,5.66848 -0.22699,7.35156 1.16072,0.70654 3.18099,0.68769 4.37512,-0.0391 2.51763,-1.53224 2.76259,-4.74097 0.52439,-6.82813 -0.60311,-0.56239 -1.77072,-0.86862 -2.88022,-0.85937 z"
       id="path3059"
       inkscape:connector-curvature="0" />
    <g
       id="g4472"
       transform="matrix(0.40222452,0,0,-0.39221473,385.63363,408.17964)">
      <path
         inkscape:connector-curvature="0"
         d="m 0,0 c -0.923,3.448 -2.152,8.048 -3.074,11.496 -52.243,-14.589 -74.763,-32.112 -73.903,-43.006 0.471,-2.188 1.03,-5.123 1.597,-7.29 l 1.583,-5.259 C -76.642,-29 -38.825,-10.496 0,0"
         style="fill:#f5f685;fill-opacity:1;fill-rule:nonzero;stroke:none"
         id="path4474" />
    </g>
    <g
       id="g4476"
       transform="matrix(0.40222452,0,0,-0.39221473,387.55345,416.8319)">
      <path
         inkscape:connector-curvature="0"
         d="m 0,0 -0.843,3.096 c -45.751,-12.971 -74.748,-31.204 -68.951,-43.36 l 1.871,-2.785 C -74.957,-29.638 -38.912,-10.63 0,0"
         style="fill:#fbc5ca;fill-opacity:1;fill-rule:nonzero;stroke:none"
         id="path4478" />
    </g>
    <g
       id="g4480"
       transform="matrix(0.40222452,0,0,-0.39221473,382.19421,397.29921)">
      <path
         inkscape:connector-curvature="0"
         d="M 0,0 -0.656,2.515 C -48.755,-11.119 -67.58,-26.602 -69.087,-35.719 l -0.313,-3.288 -0.005,-0.064 C -66.387,-23.652 -30.13,-8.387 0,0"
         style="fill:#d6f1ef;fill-opacity:1;fill-rule:nonzero;stroke:none"
         id="path4482" />
    </g>
    <g
       id="g4484"
       transform="matrix(0.40222452,0,0,-0.39221473,374.08818,444.46539)">
      <path
         inkscape:connector-curvature="0"
         d="m 0,0 c 0.992,-1.136 2.702,-1.885 3.832,-2.382 2.613,-0.901 6.116,-2.057 8.776,-2.813 l 4.171,-0.973 c -14.633,3.531 -2.406,12.198 1.69,14.772 12.765,8.017 38.609,16.343 59.764,16.4 1.399,2.899 3.178,6.805 4.411,9.777 C 40.871,34.423 -9.418,10.767 0,0"
         style="fill:#c2db8f;fill-opacity:1;fill-rule:nonzero;stroke:none"
         id="path4486" />
    </g>
    <g
       id="g4488"
       transform="matrix(0.40222452,0,0,-0.39221473,385.76074,446.70532)">
      <path
         inkscape:connector-curvature="0"
         d="m 0,0 c 0.876,-0.911 4.138,-2.874 15.478,-1.418 0.777,0.114 1.815,0.264 2.589,0.391 2.476,0.442 2.476,0.442 3.698,0.704 l 0.641,0.138 0.177,0.05 C 7.319,-3.352 0.591,-1.056 3.11,2.915 6.625,8.458 25.67,15.031 38.245,15.042 l 1.7,2.008 C 19.306,16.713 -4.937,5.14 0,0"
         style="fill:#d6f1ef;fill-opacity:1;fill-rule:nonzero;stroke:none"
         id="path4490" />
    </g>
    <g
       id="g4492"
       transform="matrix(0.40222452,0,0,-0.39221473,366.88877,440.52245)">
      <path
         inkscape:connector-curvature="0"
         d="m 0,0 c 0.276,-0.299 0.712,-0.63 1.019,-0.898 l 2.688,-1.966 c -15.962,13.531 43.044,39.808 88.948,44.197 5.288,0.505 9.294,0.565 12.22,0.611 l 0.56,3.034 C 51.442,44.157 -12.616,13.618 0,0"
         style="fill:#f7c9e7;fill-opacity:1;fill-rule:nonzero;stroke:none"
         id="path4494" />
    </g>
    <g
       id="g4496"
       transform="matrix(0.40222452,0,0,-0.39221473,390.77527,382.80217)">
      <path
         inkscape:connector-curvature="0"
         d="m 0,0 c -22.928,-0.182 -50.641,-9.909 -61.172,-18.528 -4.503,-3.994 -5.081,-4.507 -8.235,-7.911 l -1.539,-1.747 c 13.434,14.133 54.517,26.007 78.73,25.815 C 5.483,-1.559 2.371,-0.583 0,0"
         style="fill:#fbc5ca;fill-opacity:1;fill-rule:nonzero;stroke:none"
         id="path4498" />
    </g>
    <g
       id="g4500"
       transform="matrix(0.40222452,0,0,-0.39221473,399.09488,387.09614)">
      <path
         inkscape:connector-curvature="0"
         d="M 0,0 -1.828,1.55 C -40.206,0.972 -93.108,-17.756 -102.91,-34.235 l -1.452,-3.061 C -94.086,-18.748 -34.979,0.04 0,0"
         style="fill:#c2db8f;fill-opacity:1;fill-rule:nonzero;stroke:none"
         id="path4502" />
    </g>
    <g
       id="g6072"
       transform="matrix(0.10090034,0,0,-0.11690209,408.48885,411.7282)">
      <path
         d="m 0,0 c -4.951,0 -9.811,-0.775 -14.485,-2.309 l 8.863,9.883 C 6.675,21.283 9.779,41.012 2.286,57.836 -4.754,73.654 -20.36,84.445 -37.612,85.49 l 0,55.516 c 0,25.789 -20.972,46.768 -46.75,46.768 l -79.355,0 c -25.778,0 -46.75,-20.979 -46.75,-46.768 l 0,-55.516 c -17.252,-1.045 -32.859,-11.838 -39.902,-27.66 -7.491,-16.82 -4.386,-36.547 7.912,-50.258 l 8.863,-9.881 C -238.269,-0.775 -243.129,0 -248.08,0 c -25.778,0 -46.75,-20.979 -46.75,-46.766 l 0,-75.832 c 0,-25.787 20.972,-46.765 46.75,-46.765 l 248.08,0 c 25.778,0 46.75,20.978 46.75,46.765 l 0,75.832 C 46.75,-20.979 25.778,0 0,0"
         style="fill:#aaa9a8;fill-opacity:1;fill-rule:nonzero;stroke:none"
         id="path6074"
         inkscape:connector-curvature="0" />
    </g>
    <g
       id="g6076"
       transform="matrix(0.10090034,0,0,-0.11690209,407.709,410.89756)">
      <path
         d="M 0,0 C -6.021,0 -11.769,-1.176 -17.043,-3.289 L -6.18,8.822 C 5.919,22.311 8.974,41.725 1.601,58.279 -5.498,74.229 -21.035,84.752 -38.362,85.525 l 0,56.231 c 0,25.374 -20.636,46.017 -46,46.017 l -79.355,0 c -25.364,0 -46,-20.643 -46,-46.017 l 0,-56.231 c -17.327,-0.773 -32.865,-11.296 -39.967,-27.25 -7.37,-16.55 -4.315,-35.964 7.786,-49.453 l 10.862,-12.111 C -236.311,-1.176 -242.059,0 -248.08,0 c -25.364,0 -46,-20.643 -46,-46.016 l 0,-75.832 c 0,-25.373 20.636,-46.015 46,-46.015 l 248.08,0 c 25.364,0 46,20.642 46,46.015 l 0,75.832 C 46,-20.643 25.364,0 0,0"
         style="fill:#ffffff;fill-opacity:1;fill-rule:nonzero;stroke:none"
         id="path6078"
         inkscape:connector-curvature="0" />
    </g>
    <g
       id="g6080"
       transform="matrix(0.10090034,0,0,-0.11690209,407.68801,410.88797)">
      <path
         d="M 0,0 C -6.021,0 -11.769,-1.174 -17.043,-3.287 L -6.18,8.824 C 5.919,22.312 8.974,41.727 1.601,58.281 -5.498,74.23 -21.035,84.752 -38.362,85.527 l 0,56.229 c 0,25.375 -20.636,46.018 -46,46.018 l -79.355,0 c -25.364,0 -46,-20.643 -46,-46.018 l 0,-56.229 c -17.327,-0.775 -32.865,-11.298 -39.967,-27.252 -7.37,-16.548 -4.315,-35.963 7.786,-49.453 l 10.862,-12.109 C -236.311,-1.174 -242.059,0 -248.08,0 c -25.364,0 -46,-20.643 -46,-46.016 l 0,-75.832 c 0,-25.373 20.636,-46.015 46,-46.015 l 248.08,0 c 25.364,0 46,20.642 46,46.015 l 0,75.832 C 46,-20.643 25.364,0 0,0 z"
         style="fill:none;stroke:#aaa9a8;stroke-width:1.5;stroke-linecap:round;stroke-linejoin:round;stroke-miterlimit:4;stroke-opacity:1;stroke-dasharray:none"
         id="path6082"
         inkscape:connector-curvature="0" />
    </g>
    <g
       id="g6084"
       transform="matrix(0.10090034,0,0,-0.11690209,412.32943,425.13221)">
      <path
         d="m 0,0 0,75.832 c 0,25.373 -20.636,46.016 -46,46.016 -2.759,0 -5.457,-0.258 -8.083,-0.729 -5.985,-1.984 -9.635,-3.42 -9.635,-3.42 C -120.314,74.25 -238.924,35.293 -340.08,65.221 l 0,-65.221 c 0,-25.373 20.636,-46.016 46,-46.016 l 246.417,0 c 0.589,0 1.167,0.002 1.752,0.002 C -20.588,-45.965 0,-25.344 0,0"
         style="fill:#eff0ef;fill-opacity:1;fill-rule:nonzero;stroke:none"
         id="path6086"
         inkscape:connector-curvature="0" />
    </g>
    <g
       id="g6088"
       transform="matrix(0.10090034,0,0,-0.11690209,407.68801,415.09644)">
      <path
         d="m 0,0 c -5.522,0 -10,-4.484 -10,-10.016 l 0,-65.816 -228.08,0 0,65.816 c 0,5.532 -4.478,10.016 -10,10.016 -5.523,0 -10,-4.484 -10,-10.016 l 0,-75.832 c 0,-5.531 4.477,-10.015 10,-10.015 l 248.08,0 c 5.522,0 10,4.484 10,10.015 l 0,75.832 C 10,-4.484 5.522,0 0,0"
         style="fill:#52afe6;fill-opacity:1;fill-rule:nonzero;stroke:none"
         id="path6090"
         inkscape:connector-curvature="0" />
    </g>
    <g
       id="g6092"
       transform="matrix(0.10090034,0,0,-0.11690209,407.68801,426.30306)">
      <path
         d="m 0,0 c 5.522,0 10,4.484 10,10.016 l 0,75.832 c 0,5.531 -4.478,10.015 -10,10.015 -5.522,0 -10,-4.484 -10,-10.015 l 0,-65.817 -228.08,0 0,45.365 c -6.687,0.458 -13.359,1.147 -20,2.086 l 0,-57.466 c 0,-5.532 4.477,-10.016 10,-10.016 L 0,0 z"
         style="fill:#48a2df;fill-opacity:1;fill-rule:nonzero;stroke:none"
         id="path6094"
         inkscape:connector-curvature="0" />
    </g>
    <g
       id="g6096"
       transform="matrix(0.10090034,0,0,-0.11690209,395.0264,414.50759)">
      <path
         d="m 0,0 c -1.461,-1.311 -3.287,-1.955 -5.105,-1.955 -2.098,0 -4.187,0.857 -5.698,2.541 l -41.732,46.527 c -2.821,3.145 -2.559,7.983 0.586,10.803 3.145,2.822 7.981,2.559 10.803,-0.586 L 0.586,10.803 C 3.407,7.658 3.145,2.82 0,0 m 94.201,74.598 c -1.607,3.611 -5.185,5.937 -9.133,5.937 l -33.944,0 0,92.184 c 0,5.534 -4.478,10.018 -10,10.018 l -79.354,0 c -5.523,0 -10,-4.484 -10,-10.018 l 0,-92.184 -33.946,0 c -3.947,0 -7.525,-2.326 -9.133,-5.937 -1.608,-3.612 -0.944,-7.832 1.695,-10.774 l 83.622,-93.228 c 1.896,-2.116 4.6,-3.323 7.438,-3.323 2.838,0 5.542,1.207 7.439,3.323 l 83.622,93.228 c 2.639,2.942 3.303,7.162 1.694,10.774"
         style="fill:#343233;fill-opacity:1;fill-rule:nonzero;stroke:none"
         id="path6098"
         inkscape:connector-curvature="0" />
    </g>
    <g
       id="g6100"
       transform="matrix(0.10090034,0,0,-0.11690209,395.17233,418.3334)">
      <path
         d="M 0,0 C 2.838,0 5.542,1.207 7.438,3.322 L 17.959,15.053 C 8.719,12.012 -0.829,9.258 -10.616,6.865 L -7.438,3.322 C -5.542,1.207 -2.838,0 0,0"
         style="fill:#231f20;fill-opacity:1;fill-rule:nonzero;stroke:none"
         id="path6102"
         inkscape:connector-curvature="0" />
    </g>
  </g>
</svg>
